<?xml version="1.0" encoding="UTF-8"?> <svg xmlns="http://www.w3.org/2000/svg" width="780" height="440" viewBox="0 0 780 440"><title>how-to-write-a-blog-post</title><path fill="#083f3f" d="M0 0h780v440H0z"></path><path fill="#c9faf0" d="M218.9 105.5h390v250h-390z"></path><path fill="#fff" d="M301.2 151.5h225.4V355H301.2z"></path><path d="M223.9 85.5h380a5 5 0 0 1 5 5v15h-390v-15a5 5 0 0 1 5-5z" fill="#067c7c"></path><path fill="none" stroke="#0b968f" stroke-miterlimit="10" stroke-width="2" d="M331.2 181h53.7M331.2 201h3.7M331.2 211h3.7M331.2 221h3.7M331.2 241h154.4M331.2 251h148.7M331.2 261h158.4M331.2 271h154.4M331.2 281h152.4M331.2 291h154.4M331.2 311h152.4M331.2 321h154.4M331.2 331h156.4"></path><path fill="#7dead5" d="M424.9 197.5h41v7h-41zM394.9 207.5h41v7h-41z"></path><path fill="none" stroke="#0b968f" stroke-miterlimit="10" stroke-width="2" d="M341.2 201h139.7M341.2 211h148.7M341.2 221h132.7"></path><circle cx="232.6" cy="95.5" r="3" fill="#0b968f"></circle><circle cx="242.6" cy="95.5" r="3" fill="#0b968f"></circle><circle cx="252.6" cy="95.5" r="3" fill="#0b968f"></circle><path fill="#fff" d="M534.9 180.5h59v78h-59z"></path><path fill="none" stroke="#0b968f" stroke-miterlimit="10" stroke-width="2" d="M542.2 195h41.1M542.2 205h43.7M542.2 215h39M542.2 225h43.7M542.2 235h43.7M542.2 245h39"></path><path fill="#7dead5" d="M555.1 280.5h91v91h-91z"></path><path fill="none" stroke="#0b968f" stroke-miterlimit="10" stroke-width="2" d="M568.5 299.3l54.7-2.2M568.9 309.3l63.6-2.5M569.3 319.3l47.6-1.9M577.9 342l48.4 2.1M577.5 352l55 2.3"></path><circle cx="610.1" cy="303" r="10.5" fill="none" stroke="#c9faf0" stroke-miterlimit="10" stroke-width="2"></circle><path fill="#08c4b2" d="M133.9 120.5h121v254h-121z"></path><path fill="none" stroke="#0b968f" stroke-miterlimit="10" stroke-width="2" d="M154.2 147h80.7M154.2 137H191M154.2 177H199M154.2 217H193M154.2 257H207M154.2 297H193M154.2 337H201M154.2 157h64.7M154.2 187h80.7M154.2 197h74.7M154.2 227h80.7M154.2 237H231M154.2 267h80.7M154.2 277h64.7M154.2 307h80.7M154.2 317H231M154.2 347h80.7M154.2 357H227"></path></svg> 