<svg version="1.1" width="78.8" height="74.6" viewBox="0 0 78.8 74.6" xmlns="http://www.w3.org/2000/svg" xmlns:xlink="http://www.w3.org/1999/xlink" overflow="hidden"><defs></defs><path d=" M 35.3 8.5 C 37.8 9.6 39.4 11.2 39.4 11.2" stroke="#EB586F" stroke-width="3.59091" stroke-miterlimit="10" stroke-dasharray="" stroke-dashoffset="1" stroke-opacity="1" fill="none"/><path d=" M 1.4 11.2 C 1.4 11.2 10.2 20 20.4 11.2 C 21.6 10.2 22.7 9.4 23.8 8.9" stroke="#EB586F" stroke-width="3.59091" stroke-miterlimit="10" stroke-dasharray="" stroke-dashoffset="1" stroke-opacity="1" fill="none"/><path d=" M 39.4 11.2 C 39.4 11.2 48.2 20 58.4 11.2 C 68.6 2.4 77.4 11.2 77.4 11.2" stroke="#EB586F" stroke-width="3.59091" stroke-miterlimit="10" stroke-dasharray="" stroke-dashoffset="1" stroke-opacity="1" fill="none"/><path d=" M 1.4 29.6 C 1.4 29.6 10.2 38.4 20.4 29.6 C 30.6 20.8 39.4 29.6 39.4 29.6" stroke="#EB586F" stroke-width="3.59091" stroke-miterlimit="10" stroke-dasharray="" stroke-dashoffset="1" stroke-opacity="1" fill="none"/><path d=" M 39.4 29.6 C 39.4 29.6 48.2 38.4 58.4 29.6 C 68.6 20.8 77.4 29.6 77.4 29.6" stroke="#EB586F" stroke-width="3.59091" stroke-miterlimit="10" stroke-dasharray="" stroke-dashoffset="1" stroke-opacity="1" fill="none"/><path d=" M 1.4 48.1 C 1.4 48.1 10.2 56.9 20.4 48.1 C 30.6 39.3 39.4 48.1 39.4 48.1" stroke="#EB586F" stroke-width="3.59091" stroke-miterlimit="10" stroke-dasharray="" stroke-dashoffset="1" stroke-opacity="1" fill="none"/><path d=" M 39.4 48.1 C 39.4 48.1 48.2 56.9 58.4 48.1 C 68.6 39.3 77.4 48.1 77.4 48.1" stroke="#EB586F" stroke-width="3.59091" stroke-miterlimit="10" stroke-dasharray="" stroke-dashoffset="1" stroke-opacity="1" fill="none"/><path d=" M 1.4 66.5 C 1.4 66.5 10.2 75.3 20.4 66.5 C 30.6 57.7 39.4 66.5 39.4 66.5" stroke="#EB586F" stroke-width="3.59091" stroke-miterlimit="10" stroke-dasharray="" stroke-dashoffset="1" stroke-opacity="1" fill="none"/><path d=" M 62.6 63.8 C 70.9 60.1 77.4 66.5 77.4 66.5" stroke="#EB586F" stroke-width="3.59091" stroke-miterlimit="10" stroke-dasharray="" stroke-dashoffset="1" stroke-opacity="1" fill="none"/><path d=" M 39.4 66.5 C 39.4 66.5 45 72.1 52.6 69.8" stroke="#EB586F" stroke-width="3.59091" stroke-miterlimit="10" stroke-dasharray="" stroke-dashoffset="1" stroke-opacity="1" fill="none"/><circle cx="29.8" cy="7.5" r="5.5" stroke="#EB586F" stroke-width="3.59091" stroke-miterlimit="10" stroke-dasharray="" stroke-dashoffset="1" stroke-opacity="1" fill="none"/><circle cx="57.7" cy="67.1" r="5.5" stroke="#EB586F" stroke-width="3.59091" stroke-miterlimit="10" stroke-dasharray="" stroke-dashoffset="1" stroke-opacity="1" fill="none"/></svg>