<svg id="Layer_1" data-name="Layer 1" xmlns="http://www.w3.org/2000/svg" viewBox="0 0 64 64"><defs><style>.cls-1{fill:none;stroke:#0076ce;stroke-miterlimit:10;stroke-width:2px;}</style></defs><title>high-performance-analytics</title><path class="cls-1" d="M31.28,32.16a2.95,2.95,0,1,1,1.59-3.85A2.94,2.94,0,0,1,31.28,32.16Z"/><line class="cls-1" x1="42.86" y1="24.16" x2="32.87" y2="28.31"/><path class="cls-1" d="M7.75,32.12A22,22,0,0,1,51,26.1"/><line class="cls-1" x1="29.77" y1="10.1" x2="29.77" y2="16.11"/><line class="cls-1" x1="14.64" y1="16.66" x2="18.45" y2="20.77"/><line class="cls-1" x1="45.07" y1="16.66" x2="41.26" y2="20.77"/><polyline class="cls-1" points="56.06 29.63 62.5 31.02 59.96 36.75"/><polyline class="cls-1" points="0.5 50.97 29.87 37.28 29.83 46.73 61.81 31.36"/><path class="cls-1" d="M5.85,44.57A27,27,0,1,1,56.06,25.64"/><path class="cls-1" d="M56,38.68a27,27,0,0,1-46.1,11.6"/></svg>