<svg xmlns="http://www.w3.org/2000/svg" viewBox="0 0 62 55.28"><defs><style>.a,.b{fill:#0076ce;}.a{stroke:#58b847;stroke-miterlimit:10;stroke-width:2px;opacity:0.5;}</style></defs><title>virtustream-for-platform</title><path class="a" d="M37.26,34.92" transform="translate(-30.33 -31.52)"/><path class="a" d="M85.4,34.92" transform="translate(-30.33 -31.52)"/><path class="a" d="M91.16,78.78" transform="translate(-30.33 -31.52)"/><rect class="b" x="17.49" y="21.62" width="1.91" height="6.89"/><rect class="b" x="36.03" y="21.62" width="1.91" height="6.89"/><rect class="b" x="20.44" y="19.97" width="1.91" height="6.89"/><rect class="b" x="23.65" y="17.67" width="1.91" height="6.89"/><rect class="b" x="29.83" y="16.51" width="1.91" height="6.89"/><rect class="b" x="26.74" y="19.1" width="1.91" height="6.89"/><rect class="b" x="32.94" y="19.1" width="1.91" height="6.89"/><rect class="b" x="42.19" y="18.31" width="1.91" height="6.89"/><rect class="b" x="39.14" y="19.75" width="1.91" height="6.89"/><path class="b" d="M61.33,78.42,30.33,55l31-23.45L92.33,55ZM33.49,55,61.33,76,89.16,55l-27.83-21Z" transform="translate(-30.33 -31.52)"/><polygon class="b" points="31 55.28 0 31.84 3.98 28.82 5.14 30.35 3.17 31.84 31 52.89 58.83 31.84 57.05 30.49 58.2 28.96 62 31.84 31 55.28"/></svg>