<svg id="Layer_1" data-name="Layer 1" xmlns="http://www.w3.org/2000/svg" viewBox="0 0 64 64"><defs><style>.cls-1{fill:#0076ce;}</style></defs><title>optimize-processes-blue</title><path class="cls-1" d="M64,64H0V0H64ZM2,62H62V2H2Z"/><rect class="cls-1" x="5.61" y="31" width="26.18" height="2"/><path class="cls-1" d="M40.93,35.83A3.83,3.83,0,1,1,44.76,32,3.84,3.84,0,0,1,40.93,35.83Zm0-5.66A1.83,1.83,0,1,0,42.76,32,1.83,1.83,0,0,0,40.93,30.17Z"/><rect class="cls-1" x="43.76" y="31" width="14.63" height="2"/><polygon class="cls-1" points="28.39 38.13 26.98 36.71 31.69 32 26.98 27.29 28.39 25.87 34.52 32 28.39 38.13"/><polygon class="cls-1" points="28.89 19.63 19.92 10.54 5.61 10.54 5.61 8.54 20.76 8.54 30.31 18.22 28.89 19.63"/><polygon class="cls-1" points="30.71 20.29 22.05 20.29 22.05 18.29 28.71 18.29 28.71 11.62 30.71 11.62 30.71 20.29"/><polygon class="cls-1" points="20.76 55.31 5.61 55.31 5.61 53.31 19.92 53.31 28.89 44.23 30.31 45.63 20.76 55.31"/><polygon class="cls-1" points="30.71 52.23 28.71 52.23 28.71 45.56 22.05 45.56 22.05 43.56 30.71 43.56 30.71 52.23"/></svg>